<?xml version="1.0" encoding="utf-8"?>
<!-- Generator: Adobe Illustrator 21.0.2, SVG Export Plug-In . SVG Version: 6.00 Build 0)  -->
<svg version="1.1" id="レイヤー_1" xmlns="http://www.w3.org/2000/svg" xmlns:xlink="http://www.w3.org/1999/xlink" x="0px"
	 y="0px" viewBox="0 0 424 76" style="enable-background:new 0 0 424 76;" xml:space="preserve">
<style type="text/css">
	.st0{fill:#FFFFFF;}
</style>
<title>type_people</title>
<g>
	<path class="st0" d="M98.6,28.2L87.8,52.9h5l2.5-5.8h10.9l2.4,5.8h5.1l-10.8-24.7H98.6z M97,42.8l3.6-8.5l3.7,8.5H97z"/>
	<polygon class="st0" points="135.1,44.3 122.7,28.3 118.4,28.3 118.4,52.9 123.1,52.9 123.1,36.4 135.9,52.9 139.8,52.9 
		139.8,28.3 135.1,28.3 	"/>
	<polygon class="st0" points="145.7,32.8 153.3,32.8 153.3,52.9 158.2,52.9 158.2,32.8 165.7,32.8 165.7,28.3 145.7,28.3 	"/>
	<polygon class="st0" points="176.6,42.7 188.6,42.7 188.6,38.3 176.6,38.3 176.6,32.7 190.1,32.7 190.1,28.3 171.8,28.3 
		171.8,52.9 190.3,52.9 190.3,48.5 176.6,48.5 	"/>
	<path class="st0" d="M206.3,28.3h-9.2v24.5h9.2c7.5,0,13-5.2,13-12.3C219.3,33.5,213.9,28.3,206.3,28.3z M206.3,48.4h-4.4V32.8h4.4
		c4.7,0,8,3.2,8,7.9C214.3,45.3,211.1,48.4,206.3,48.4z"/>
	<polygon class="st0" points="230.5,28.3 225.7,28.3 225.7,52.9 243.1,52.9 243.1,48.4 230.5,48.4 	"/>
	<polygon class="st0" points="254,38.6 247.5,28.3 241.7,28.3 251.5,43.2 251.5,52.9 256.3,52.9 256.3,43.1 266.1,28.3 260.5,28.3 	
		"/>
	<polygon class="st0" points="85.6,23 75.9,46.7 71.6,36.4 77.4,23 72,23 69.1,30.2 66.1,23 60.6,23 66.5,36.5 62.3,46.7 52.5,23 
		47,23 59.9,52.9 64.5,52.9 69,42.4 73.5,52.9 78.1,52.9 91,23 	"/>
	<polygon class="st0" points="286.9,52.8 276.6,28.5 279.8,28.5 288.2,49 296.7,28.5 299.8,28.5 289.5,52.8 	"/>
	<rect x="307.8" y="28.5" class="st0" width="2.9" height="24.1"/>
	<path class="st0" d="M329.7,53c-3.8,0-6.9-1.2-9.8-3.9l-0.1-0.1l1.8-2.1l0.1,0.1c2.6,2.4,5,3.4,8.1,3.4s5.2-1.6,5.2-4
		c0-2.1-1-3.4-6.1-4.5c-5.8-1.3-8.1-3.2-8.1-7c0-3.9,3.3-6.7,8-6.7c3.3,0,5.9,0.9,8.5,3l0.1,0.1l-1.7,2.2l-0.1-0.1
		c-2.2-1.8-4.3-2.6-6.8-2.6c-2.9,0-5,1.5-5,3.8c0,2.2,1,3.5,6.4,4.6c5.5,1.2,7.9,3.3,7.9,6.9C338,50.2,334.6,53,329.7,53z"/>
	<rect x="347.4" y="28.5" class="st0" width="2.9" height="24.1"/>
	<polygon class="st0" points="366.1,52.7 366.1,31.2 358,31.2 358,28.5 377,28.5 377,31.2 369,31.2 369,52.7 	"/>
</g>
</svg>
